# xmcd
#
# Track frame offsets: 
#        150
#        18030
#        38998
#        68779
#        93907
#        112842
#        139458
#        160777
#        192279
#        210540
#        225949
#        248332
#        265683
#
# Disc length: 3803 seconds
#
# Revision: 0
# Processed by: cddbd v1.5.2PL0 Copyright (c) Steve Scherf et al.
# Submitted via: ExactAudioCopy v0.99pb4
#
DISCID=9a0ed90d
DTITLE=Various Artist - Lucerne Blues Festival
DYEAR=2008
DGENRE=Blues
TTITLE0=You Don't know me at all
TTITLE1=Please Set A Date
TTITLE2=Goin Out Da Mountain
TTITLE3=Cool In The Evening
TTITLE4=Sugar
TTITLE5=Sitting On My Front Porch
TTITLE6=The World's Been Good To You
TTITLE7=Trouble
TTITLE8=Portable Man
TTITLE9=Comb My Hair
TTITLE10=Frammin
TTITLE11=Dead Letter Blues
TTITLE12=Dream I Hab Last Night
EXTD=
EXTT0=
EXTT1=
EXTT2=
EXTT3=
EXTT4=
EXTT5=
EXTT6=
EXTT7=
EXTT8=
EXTT9=
EXTT10=
EXTT11=
EXTT12=
PLAYORDER=
